# xmcd CD database file
#
# Track frame offsets:
#	150
#	21847
#	50210
#	74425
#	106425
#	125702
#	144870
#	166485
#	199620
#	219422
#
# Disc length: 3353 seconds
#
# Revision: 0
# Processed by: cddbd v1.5PL3 Copyright (c) Steve Scherf et al.
# Submitted via: CDex 1.60beta1
#
DISCID=970d170a
DTITLE=Alex Welsh Band - Vintage Alex Welsh
DYEAR=1900
DGENRE=Jazz
TTITLE0=Barnyard Blues
TTITLE1=On The Alamo
TTITLE2=My Blue Heaven
TTITLE3=Jersey Bounce
TTITLE4=If I Had Anybody But You
TTITLE5=Rosalie
TTITLE6=Exactly Like You
TTITLE7=I'm Confessin'
TTITLE8=Gone Fishin'
TTITLE9=Bye and Bye
EXTD=
EXTT0=
EXTT1=
EXTT2=
EXTT3=
EXTT4=
EXTT5=
EXTT6=
EXTT7=
EXTT8=
EXTT9=
PLAYORDER=
